<svg width="1164" height="858" viewBox="0 0 1164 858" fill="none" xmlns="http://www.w3.org/2000/svg">
<mask id="mask0_1503_386" style="mask-type:alpha" maskUnits="userSpaceOnUse" x="55" y="90" width="1055" height="664">
<path d="M308.76 180.286C230.691 180.286 184.993 221.224 176.424 306.909C242.116 306.909 341.129 306.909 425.862 304.053C426.814 225.985 383.02 180.286 308.76 180.286ZM540.108 471.614C502.978 535.402 433.478 583.004 317.328 583.004C132.63 583.004 55.5136 483.991 55.5136 339.279C55.5136 192.663 137.39 90.7933 308.76 90.7933C449.663 90.7933 544.868 159.341 544.868 308.813C544.868 324.998 542.964 348.799 540.108 368.793C436.335 367.841 275.438 366.888 176.424 368.793C184.993 447.813 232.595 487.799 318.28 487.799C398.252 487.799 433.478 451.621 453.471 415.443C470.608 428.772 519.163 460.19 540.108 471.614ZM981.935 301.197C981.935 222.176 931.476 188.855 848.648 188.855C761.059 188.855 726.785 242.17 726.785 339.279C726.785 416.395 755.346 478.279 842.935 478.279C927.668 478.279 981.935 409.731 981.935 301.197ZM1108.56 753.422C1076.19 752.47 1014.3 752.47 982.887 753.422C984.791 718.196 986.695 595.381 985.743 439.244H980.983C949.565 526.833 892.442 583.004 798.189 583.004C666.806 583.004 607.778 488.751 607.778 340.231C607.778 173.622 682.99 93.6494 809.613 93.6494C892.442 93.6494 948.613 126.019 978.127 177.43L981.935 176.478C980.983 146.964 980.031 116.499 980.031 101.266C990.503 101.266 1098.09 101.266 1109.51 100.314C1099.99 374.505 1099.99 592.525 1108.56 753.422Z" fill="black"/>
<path d="M488.312 646.853C335.511 646.853 97.125 635.422 97.125 635.422V715.438C97.125 715.438 335.511 704.007 488.312 704.007C641.114 704.007 879.5 715.438 879.5 715.438V635.422C879.5 635.422 641.114 646.853 488.312 646.853Z" fill="white" fill-opacity="0.6"/>
</mask>
<g mask="url(#mask0_1503_386)">
<rect x="44" y="81" width="1076" height="696" fill="black"/>
</g>
</svg>
