<svg width="12" height="12" viewBox="0 0 12 12" fill="none" xmlns="http://www.w3.org/2000/svg">
<g clip-path="url(#clip0_2366_4064)">
<g clip-path="url(#clip1_2366_4064)">
<path fill-rule="evenodd" clip-rule="evenodd" d="M8.37775 9.14632C9.88131 8.96678 11.1905 8.04037 11.355 7.19388C11.6143 5.86042 11.5929 3.93979 11.5929 3.93979C11.5929 1.33662 9.88732 0.573597 9.88732 0.573597C9.02738 0.178635 7.55071 0.0125426 6.01658 0H5.97888C4.44475 0.0125426 2.96905 0.178635 2.10905 0.573597C2.10905 0.573597 0.40345 1.33662 0.40345 3.93979C0.40345 4.09761 0.402635 4.26359 0.401785 4.43639C0.399427 4.91629 0.396811 5.44872 0.410691 6.00447C0.472628 8.55022 0.877417 11.0592 3.23115 11.6822C4.31641 11.9694 5.24818 12.0296 5.9986 11.9883C7.35947 11.9129 8.12341 11.5026 8.12341 11.5026L8.07854 10.5153C8.07854 10.5153 7.10604 10.8219 6.01386 10.7845C4.93177 10.7474 3.78943 10.6679 3.61441 9.33931C3.59825 9.22261 3.59017 9.09783 3.59017 8.96678C3.59017 8.96678 4.65241 9.22642 5.9986 9.2881C6.82176 9.32586 7.59371 9.23987 8.37775 9.14632ZM9.58106 7.29374V4.14174C9.58106 3.49754 9.41704 2.98562 9.08763 2.60689C8.74782 2.22816 8.30288 2.034 7.75062 2.034C7.11153 2.034 6.62761 2.27962 6.30771 2.77091L5.9966 3.29234L5.68556 2.77091C5.36559 2.27962 4.88167 2.034 4.24264 2.034C3.69032 2.034 3.24538 2.22816 2.90563 2.60689C2.57616 2.98562 2.41214 3.49754 2.41214 4.14174V7.29374H3.6609V4.23439C3.6609 3.58948 3.93225 3.26214 4.475 3.26214C5.07511 3.26214 5.37593 3.65045 5.37593 4.41826V6.09282H6.61733V4.41826C6.61733 3.65045 6.91809 3.26214 7.51819 3.26214C8.06095 3.26214 8.3323 3.58948 8.3323 4.23439V7.29374H9.58106Z" fill="black"/>
</g>
</g>
<defs>
<clipPath id="clip0_2366_4064">
<rect width="12" height="12" fill="white"/>
</clipPath>
<clipPath id="clip1_2366_4064">
<rect width="12" height="12" fill="white"/>
</clipPath>
</defs>
</svg>
